<?xml version="1.0" encoding="utf-8"?>
<!-- Generator: Adobe Illustrator 15.1.0, SVG Export Plug-In  -->
<!DOCTYPE svg PUBLIC "-//W3C//DTD SVG 1.1//EN" "http://www.w3.org/Graphics/SVG/1.1/DTD/svg11.dtd" [
	<!ENTITY ns_flows "http://ns.adobe.com/Flows/1.0/">
]>
<svg version="1.1"
	 xmlns="http://www.w3.org/2000/svg" xmlns:xlink="http://www.w3.org/1999/xlink" xmlns:a="http://ns.adobe.com/AdobeSVGViewerExtensions/3.0/"
	 x="0px" y="0px" width="140px" height="90px" viewBox="-0.689 -0.887 140 90"
	 overflow="visible" enable-background="new -0.689 -0.887 140 90" xml:space="preserve">
<defs>
</defs>
<linearGradient id="SVGID_1_" gradientUnits="userSpaceOnUse" x1="0" y1="44.1128" x2="138.2964" y2="44.1128">
	<stop  offset="0" style="stop-color:#F8AC1C"/>
	<stop  offset="0.1593" style="stop-color:#F1A51E"/>
	<stop  offset="0.3618" style="stop-color:#E39421"/>
	<stop  offset="0.5876" style="stop-color:#CF7D24"/>
	<stop  offset="0.8285" style="stop-color:#B65F24"/>
	<stop  offset="1" style="stop-color:#A34723"/>
</linearGradient>
<path fill="url(#SVGID_1_)" d="M45.092,79.393l0.069-0.05c1.693-4.779,6.191-8.219,11.542-8.248h0.003h0.019
	c0.014,0,0.026-0.004,0.039-0.004c0.014,0,0.026,0.004,0.039,0.004h80.549c5.21-26.052-11.502-59.565-40.713-68.501
	C65.785-6.839,9.099,10.545,0.988,37.057C-5.01,56.675,17.259,75.786,41.741,88.226L45.092,79.393z"/>
<path fill="#FFFFFF" d="M48.049,56.988c-2.479,0-4.605-0.67-5.866-1.534l1.26-3.071c0.787,0.63,2.244,1.22,3.977,1.22
	c1.968,0,3.267-1.261,3.267-2.993c0-1.811-0.944-2.675-3.11-3.503c-4.016-1.534-4.842-3.739-4.842-5.944
	c0-3.386,2.677-6.142,6.732-6.142c2.361,0,4.132,0.591,5.512,1.495l-1.181,2.796c-0.63-0.512-1.89-1.18-3.386-1.18
	c-1.968,0-3.031,1.298-3.031,2.795c0,1.732,1.299,2.599,3.15,3.346c4.134,1.653,5.078,3.782,5.078,6.259
	C55.608,53.998,52.695,56.988,48.049,56.988z"/>
<path fill="#FFFFFF" d="M61.396,31.753c-1.458,0-2.639-1.063-2.639-2.363c0-1.338,1.181-2.401,2.639-2.401
	c1.496,0,2.637,1.063,2.637,2.401C64.033,30.689,62.892,31.753,61.396,31.753z M58.995,56.634V35.413h4.802v21.222H58.995z"/>
<path fill="#FFFFFF" d="M75.725,57.026c-5.787,0-8.66-2.36-8.66-6.455c0-5.591,5.394-7.204,11.85-7.834v-1.143
	c0-2.755-1.732-3.504-4.211-3.504c-2.05,0-4.018,0.669-5.315,1.299l-1.103-2.755c1.376-0.668,3.937-1.614,7.283-1.614
	c4.369,0,7.834,1.85,7.834,7.323v13.149C81.711,56.398,79.033,57.026,75.725,57.026z M78.915,45.021
	c-4.527,0.551-7.322,1.534-7.322,5.393c0,2.754,1.653,3.938,4.45,3.938c1.101,0,2.162-0.236,2.872-0.592V45.021z"/>
<path fill="#FFFFFF" d="M94.583,56.871c-4.172,0-5.826-2.795-5.826-5.748V38.485h-2.361v-3.072h2.361v-4.685l4.804-1.338v6.023
	h3.466v3.072H93.56v12.401c0,1.653,0.671,2.756,2.323,2.756c0.433,0,0.749-0.079,1.143-0.198v2.993
	C96.592,56.634,95.726,56.871,94.583,56.871z"/>
</svg>
